<svg width="87" height="92" viewBox="0 0 87 92" fill="none" xmlns="http://www.w3.org/2000/svg">
<g clip-path="url(#clip0_22_24)">
<path d="M38.336 92H49.472V9.56799H76.096V0.479996H11.712V9.56799H38.336V92Z" fill="black"/>
<path d="M0.52 92H10.76V14.944L42.12 92H45.576L75.912 14.944V92H87.048V0.479996H71.688L44.296 71.776L16.008 0.479996H0.52V92Z" fill="black"/>
<path d="M22.68 86.844C16.44 86.844 11.88 81.996 11.88 74.508V74.124C11.88 66.732 15.864 61.788 22.584 61.788C29.304 61.788 33.24 67.02 33.24 74.076V74.46C33.24 81.9 29.16 86.844 22.68 86.844ZM22.584 91.98C33 91.98 39.864 84.444 39.864 74.412V74.028C39.864 63.948 32.808 56.7 22.584 56.7C12.408 56.7 5.208 64.14 5.208 74.172V74.556C5.208 84.444 12.072 91.98 22.584 91.98Z" fill="black"/>
<path d="M65.68 86.844C59.44 86.844 54.88 81.996 54.88 74.508V74.124C54.88 66.732 58.864 61.788 65.584 61.788C72.304 61.788 76.24 67.02 76.24 74.076V74.46C76.24 81.9 72.16 86.844 65.68 86.844ZM65.584 91.98C76 91.98 82.864 84.444 82.864 74.412V74.028C82.864 63.948 75.808 56.7 65.584 56.7C55.408 56.7 48.208 64.14 48.208 74.172V74.556C48.208 84.444 55.072 91.98 65.584 91.98Z" fill="black"/>
</g>
<defs>
<clipPath id="clip0_22_24">
<rect width="87" height="92" fill="white"/>
</clipPath>
</defs>
</svg>
